HIERARCHY
ROOT Hips
{
  OFFSET 55.0424 85.5207 13.0949
  CHANNELS 6 Xposition Yposition Zposition Zrotation Xrotation Yrotation
  JOINT spine
  {
    OFFSET 0 6.3926 0.367606
    CHANNELS 3 Zrotation Xrotation Yrotation
    JOINT spine1
    {
      OFFSET 0 9.17611 0
      CHANNELS 3 Zrotation Xrotation Yrotation
      JOINT spine2
      {
        OFFSET 0 8.79238 0
        CHANNELS 3 Zrotation Xrotation Yrotation
        JOINT Neck
        {
          OFFSET 0 22.5737 1.07624
          CHANNELS 3 Zrotation Xrotation Yrotation
          JOINT Head
          {
            OFFSET 0 6.82011 0
            CHANNELS 3 Zrotation Xrotation Yrotation
            End Site
            {
              OFFSET 0 16.5085 -5.44427
            }
          }
        }
        JOINT RightShoulder
        {
          OFFSET -3.70221 9.49509 -0.515508
          CHANNELS 3 Zrotation Xrotation Yrotation
          JOINT RightArm
          {
            OFFSET 0 12.4537 0
            CHANNELS 3 Zrotation Xrotation Yrotation
            JOINT RightArmRoll
            {
              OFFSET 0 6.28686 0
              CHANNELS 3 Zrotation Xrotation Yrotation
              JOINT RightForeArm
              {
                OFFSET 0 18.3114 0
                CHANNELS 3 Zrotation Xrotation Yrotation
                JOINT RightForeArmRoll
                {
                  OFFSET 0 7.05482 0
                  CHANNELS 3 Zrotation Xrotation Yrotation
                  JOINT RightHand
                  {
                    OFFSET 0 14.1575 0
                    CHANNELS 3 Zrotation Xrotation Yrotation
                    End Site
                    {
                      OFFSET 0 0 0
                    }
                  }
                }
              }
            }
          }
        }
        JOINT LeftShoulder
        {
          OFFSET 3.70221 9.49509 -0.515508
          CHANNELS 3 Zrotation Xrotation Yrotation
          JOINT LeftArm
          {
            OFFSET 0 12.4537 0
            CHANNELS 3 Zrotation Xrotation Yrotation
            JOINT LeftArmRoll
            {
              OFFSET 0 6.28686 0
              CHANNELS 3 Zrotation Xrotation Yrotation
              JOINT LeftForeArm
              {
                OFFSET 0 18.3114 0
                CHANNELS 3 Zrotation Xrotation Yrotation
                JOINT LeftForeArmRoll
                {
                  OFFSET 0 7.05482 0
                  CHANNELS 3 Zrotation Xrotation Yrotation
                  JOINT LeftHand
                  {
                    OFFSET 0 14.1575 0
                    CHANNELS 3 Zrotation Xrotation Yrotation
                    End Site
                    {
                      OFFSET 0 0 0
                    }
                  }
                }
              }
            }
          }
        }
      }
    }
  }
  JOINT RightUpLeg
  {
    OFFSET -5.66616 -1.03903 -0.87161
    CHANNELS 3 Zrotation Xrotation Yrotation
    JOINT RightUpLegRoll
    {
      OFFSET 0 16.6005 0
      CHANNELS 3 Zrotation Xrotation Yrotation
      JOINT RightLeg
      {
        OFFSET 0 -20.5572 0
        CHANNELS 3 Zrotation Xrotation Yrotation
        JOINT RightLegRoll
        {
          OFFSET 0 20.6244 0
          CHANNELS 3 Zrotation Xrotation Yrotation
          JOINT RightFoot
          {
            OFFSET 0 17.1664 0
            CHANNELS 3 Zrotation Xrotation Yrotation
            JOINT RightToeBase
            {
              OFFSET 0 14.3502 0
              CHANNELS 3 Zrotation Xrotation Yrotation
              End Site
              {
                OFFSET 0.00608252 6.94971 -0.80106
              }
            }
          }
        }
      }
    }
  }
  JOINT LeftUpLeg
  {
    OFFSET 5.66616 -1.03903 -0.87161
    CHANNELS 3 Zrotation Xrotation Yrotation
    JOINT LeftUpLegRoll
    {
      OFFSET 0 16.6006 0
      CHANNELS 3 Zrotation Xrotation Yrotation
      JOINT LeftLeg
      {
        OFFSET 0 20.5571 0
        CHANNELS 3 Zrotation Xrotation Yrotation
        JOINT LeftLegRoll
        {
          OFFSET 0 20.8151 0
          CHANNELS 3 Zrotation Xrotation Yrotation
          JOINT LeftFoot
          {
            OFFSET 0 16.9757 0
            CHANNELS 3 Zrotation Xrotation Yrotation
            JOINT LeftToeBase
            {
              OFFSET 0 14.3502 0
              CHANNELS 3 Zrotation Xrotation Yrotation
              End Site
              {
                OFFSET -0.0272592 6.94971 -0.801061
              }
            }
          }
        }
      }
    }
  }
}
MOTION
Frames: 9
Frame Time: 0.00208333
56.6386 85.4494 12.665 -0.615706 -4.17433 -18.7431 -0.503778 -1.01709 -0.170068 -1.01118 1.95753 -0.282534 -1.00873 3.60243 -0.265781 1.74222 10.8271 3.67578 -4.1322 7.4178 4.14809 62.7366 -0.376502 -0.667076 106.534 16.181 3.93763 -3.62755e-005 6.65621e-007 -5.2806e-006 14.7897 3.50777 -0.714794 6.64799e-007 2.38647e-006 -2.99999 8.02892 -4.95144 0.697689 -56.49 0.423721 -0.593018 -110.291 15.2033 -3.09458 -1.23589e-006 -7.62405e-007 3.59159e-006 -8.85246 1.27168 0.674958 -1.09992e-005 2.7141e-007 3.00001 -8.02902 -4.95148 -0.697665 172.226 -3.29207 3.8219 180 7.01528e-015 178.845 175.14 9.61856 -179.999 2.32599e-006 -3.99697e-006 0.170376 -21.0917 70.7853 22.1896 8.15078 25.4658 -3.16047 -174.709 -0.88036 0.582436 4.54188e-006 -4.6773e-006 -1.0171 -0.699403 -7.12707 0.603488 -3.27701e-006 -3.04128e-006 0.0895834 16.0906 67.7142 -19.3053 -8.1365 25.2328 3.4875 
56.6424 85.4549 12.6663 -0.615119 -4.1718 -18.7409 -0.503888 -1.01906 -0.171387 -1.01099 1.95447 -0.2853 -1.00853 3.59938 -0.268551 1.76601 10.8588 3.67108 -4.17055 7.38581 4.14884 62.7446 -0.366315 -0.662172 106.525 16.1771 3.94221 -3.62755e-005 6.65621e-007 -5.2806e-006 14.7902 3.50407 -0.714862 6.64799e-007 2.38647e-006 -2.99999 8.02892 -4.95144 0.697689 -56.4931 0.416303 -0.587817 -110.285 15.201 -3.09641 -1.23589e-006 -7.62405e-007 3.59159e-006 -8.85531 1.26376 0.673779 -1.09992e-005 2.7141e-007 3.00001 -8.02902 -4.95148 -0.697665 172.225 -3.28743 3.82363 180 7.01528e-015 178.845 175.138 9.62123 -179.999 2.32599e-006 -3.99697e-006 0.170376 -21.0925 70.786 22.1905 8.15078 25.4658 -3.1612 -174.712 -0.872573 0.589652 4.54188e-006 -4.6773e-006 -1.0171 -0.692262 -7.13117 0.60433 -3.27701e-006 -3.04128e-006 0.0895834 16.0825 67.7169 -19.3071 -8.1365 25.2328 3.4875 
56.6359 85.4532 12.6626 -0.61444 -4.16895 -18.7386 -0.504053 -1.02129 -0.172779 -1.01088 1.95095 -0.288228 -1.0084 3.59586 -0.271483 1.79187 10.8944 3.66597 -4.21173 7.35052 4.14965 62.7535 -0.354379 -0.656379 106.515 16.1723 3.94796 -3.62755e-005 6.65621e-007 -5.2806e-006 14.7905 3.4999 -0.714897 6.64799e-007 2.38647e-006 -2.99999 8.02892 -4.95144 0.697689 -56.4964 0.409472 -0.582959 -110.279 15.1982 -3.09882 -1.23589e-006 -7.62405e-007 3.59159e-006 -8.85837 1.25519 0.672502 -1.09992e-005 2.7141e-007 3.00001 -8.02902 -4.95148 -0.697665 172.224 -3.28237 3.82545 180 7.01528e-015 178.845 175.135 9.62404 -179.998 2.32599e-006 -3.99697e-006 0.170376 -21.0934 70.7868 22.1915 8.15078 25.4658 -3.16195 -174.715 -0.864144 0.597277 4.54188e-006 -4.6773e-006 -1.0171 -0.684731 -7.13551 0.605219 -3.27701e-006 -3.04128e-006 0.0895834 16.0738 67.7197 -19.309 -8.1365 25.2328 3.4875 
56.6451 85.4485 12.6654 -0.613695 -4.16587 -18.7361 -0.504256 -1.02368 -0.174221 -1.01081 1.94711 -0.29127 -1.00833 3.59202 -0.274527 1.81918 10.9328 3.66057 -4.25489 7.31293 4.1505 62.7632 -0.341219 -0.649964 106.504 16.1669 3.95454 -3.62755e-005 6.65621e-007 -5.2806e-006 14.7908 3.4954 -0.71491 6.64799e-007 2.38647e-006 -2.99999 8.02892 -4.95144 0.697689 -56.5 0.403054 -0.57834 -110.273 15.1948 -3.10161 -1.23589e-006 -7.62405e-007 3.59159e-006 -8.86159 1.24616 0.671154 -1.09992e-005 2.7141e-007 3.00001 -8.02902 -4.95148 -0.697665 172.223 -3.27701 3.82733 180 7.01528e-015 178.845 175.132 9.62697 -179.997 2.32599e-006 -3.99697e-006 0.170376 -21.0944 70.7877 22.1925 8.15078 25.4658 -3.1627 -174.718 -0.855266 0.605188 4.54188e-006 -4.6773e-006 -1.0171 -0.676927 -7.14002 0.60614 -3.27701e-006 -3.04128e-006 0.0895834 16.0647 67.7226 -19.311 -8.1365 25.2328 3.4875 
56.6399 85.4524 12.6591 -0.612914 -4.16267 -18.7335 -0.504481 -1.02617 -0.175692 -1.01077 1.94308 -0.294377 -1.00827 3.58799 -0.277636 1.84731 10.9727 3.65499 -4.29918 7.27402 4.15138 62.7732 -0.327361 -0.643194 106.493 16.1612 3.96158 -3.62755e-005 6.65621e-007 -5.2806e-006 14.791 3.4907 -0.71491 6.64799e-007 2.38647e-006 -2.99999 8.02892 -4.95144 0.697689 -56.5036 0.39687 -0.573858 -110.266 15.1913 -3.10463 -1.23589e-006 -7.62405e-007 3.59159e-006 -8.86489 1.23687 0.669768 -1.09992e-005 2.7141e-007 3.00001 -8.02902 -4.95148 -0.697665 172.222 -3.27149 3.82925 180 7.01528e-015 178.845 175.129 9.62994 -179.996 2.32599e-006 -3.99697e-006 0.170376 -21.0954 70.7886 22.1935 8.15078 25.4658 -3.16346 -174.72 -0.846132 0.613263 4.54188e-006 -4.6773e-006 -1.0171 -0.668967 -7.14464 0.607079 -3.27701e-006 -3.04128e-006 0.0895834 16.0554 67.7256 -19.3131 -8.1365 25.2328 3.4875 
56.6358 85.4525 12.6575 -0.612123 -4.15943 -18.7309 -0.504712 -1.02869 -0.177171 -1.01074 1.93901 -0.297501 -1.00823 3.58392 -0.280761 1.87567 11.013 3.64938 -4.34376 7.23478 4.15227 62.7833 -0.313327 -0.636334 106.481 16.1553 3.96873 -3.62755e-005 6.65621e-007 -5.2806e-006 14.7911 3.48596 -0.714906 6.64799e-007 2.38647e-006 -2.99999 8.02892 -4.95144 0.697689 -56.5073 0.390745 -0.56941 -110.258 15.1876 -3.10771 -1.23589e-006 -7.62405e-007 3.59159e-006 -8.86822 1.22751 0.668371 -1.09992e-005 2.7141e-007 3.00001 -8.02902 -4.95148 -0.697665 172.22 -3.26593 3.83117 180 7.01528e-015 178.845 175.126 9.63293 -179.996 2.32599e-006 -3.99697e-006 0.170376 -21.0964 70.7895 22.1946 8.15078 25.4658 -3.16422 -174.723 -0.836933 0.621378 4.54188e-006 -4.6773e-006 -1.0171 -0.660968 -7.14927 0.608023 -3.27701e-006 -3.04128e-006 0.0895834 16.0461 67.7286 -19.3151 -8.1365 25.2328 3.4875 
56.6429 85.4529 12.6598 -0.611352 -4.15626 -18.7284 -0.504931 -1.03116 -0.178635 -1.01069 1.93503 -0.300592 -1.00817 3.57993 -0.283854 1.90362 11.0525 3.64385 -4.38776 7.1962 4.15314 62.7932 -0.299643 -0.629653 106.47 16.1497 3.97565 -3.62755e-005 6.65621e-007 -5.2806e-006 14.7913 3.48131 -0.714909 6.64799e-007 2.38647e-006 -2.99999 8.02892 -4.95144 0.697689 -56.511 0.384503 -0.564894 -110.252 15.1841 -3.11068 -1.23589e-006 -7.62405e-007 3.59159e-006 -8.8715 1.21829 0.666994 -1.09992e-005 2.7141e-007 3.00001 -8.02902 -4.95148 -0.697665 172.219 -3.26044 3.83308 180 7.01528e-015 178.845 175.123 9.63589 -179.995 2.32599e-006 -3.99697e-006 0.170376 -21.0974 70.7904 22.1957 8.15078 25.4658 -3.16497 -174.726 -0.827863 0.629412 4.54188e-006 -4.6773e-006 -1.0171 -0.653047 -7.15386 0.608957 -3.27701e-006 -3.04128e-006 0.0895834 16.0368 67.7316 -19.3171 -8.1365 25.2328 3.4875 
56.6435 85.4549 12.6585 -0.610627 -4.15324 -18.7259 -0.505124 -1.0335 -0.180062 -1.01061 1.93128 -0.303601 -1.00808 3.57619 -0.286866 1.93054 11.0901 3.63853 -4.43035 7.15927 4.15399 62.8027 -0.286833 -0.623416 106.459 16.1445 3.98199 -3.62755e-005 6.65621e-007 -5.2806e-006 14.7916 3.47691 -0.714928 6.64799e-007 2.38647e-006 -2.99999 8.02892 -4.95144 0.697689 -56.5144 0.377967 -0.560207 -110.245 15.1809 -3.11336 -1.23589e-006 -7.62405e-007 3.59159e-006 -8.87468 1.20939 0.665666 -1.09992e-005 2.7141e-007 3.00001 -8.02902 -4.95148 -0.697665 172.218 -3.25517 3.83494 180 7.01528e-015 178.845 175.12 9.63879 -179.994 2.32599e-006 -3.99697e-006 0.170376 -21.0983 70.7913 22.1967 8.15078 25.4658 -3.16573 -174.729 -0.819113 0.637241 4.54188e-006 -4.6773e-006 -1.0171 -0.64532 -7.15833 0.609869 -3.27701e-006 -3.04128e-006 0.0895834 16.0279 67.7345 -19.3191 -8.1365 25.2328 3.4875 
56.6457 85.4536 12.67 -0.609977 -4.15049 -18.7236 -0.505273 -1.03565 -0.181433 -1.01048 1.9279 -0.306481 -1.00793 3.57281 -0.289749 1.95582 11.1246 3.63354 -4.47068 7.12497 4.15479 62.8113 -0.275422 -0.61789 106.449 16.1399 3.98739 -3.62755e-005 6.65621e-007 -5.2806e-006 14.792 3.47288 -0.714973 6.64799e-007 2.38647e-006 -2.99999 8.02892 -4.95144 0.697689 -56.5177 0.37096 -0.555246 -110.239 15.1782 -3.11559 -1.23589e-006 -7.62405e-007 3.59159e-006 -8.87768 1.20101 0.664419 -1.09992e-005 2.7141e-007 3.00001 -8.02902 -4.95148 -0.697665 172.217 -3.25024 3.83673 180 7.01528e-015 178.845 175.117 9.64154 -179.993 2.32599e-006 -3.99697e-006 0.170376 -21.0992 70.7921 22.1976 8.15078 25.4658 -3.16647 -174.732 -0.810877 0.644743 4.54188e-006 -4.6773e-006 -1.0171 -0.637906 -7.1626 0.610744 -3.27701e-006 -3.04128e-006 0.0895834 16.0194 67.7372 -19.321 -8.1365 25.2328 3.4875 
